<svg width="21" height="21" viewBox="0 0 21 21" fill="none" xmlns="http://www.w3.org/2000/svg">
<path d="M10.25 0C8.22274 0 6.24101 0.601152 4.55541 1.72744C2.86981 2.85372 1.55604 4.45455 0.780239 6.32749C0.00444099 8.20044 -0.198543 10.2614 0.196956 12.2497C0.592454 14.238 1.56867 16.0644 3.00216 17.4978C4.43565 18.9313 6.26202 19.9075 8.25033 20.303C10.2386 20.6985 12.2996 20.4956 14.1725 19.7198C16.0454 18.944 17.6463 17.6302 18.7726 15.9446C19.8988 14.259 20.5 12.2773 20.5 10.25C20.4968 7.53251 19.4159 4.92724 17.4943 3.00568C15.5728 1.08412 12.9675 0.00319142 10.25 0ZM10.25 19.2941C8.46125 19.2941 6.71266 18.7637 5.22536 17.7699C3.73806 16.7761 2.57886 15.3636 1.89433 13.711C1.2098 12.0584 1.0307 10.24 1.37967 8.48558C1.72864 6.73119 2.59 5.11968 3.85485 3.85484C5.11969 2.59 6.7312 1.72863 8.48558 1.37966C10.24 1.03069 12.0584 1.2098 13.711 1.89432C15.3636 2.57885 16.7761 3.73806 17.7699 5.22536C18.7637 6.71265 19.2941 8.46124 19.2941 10.25C19.2915 12.6478 18.3377 14.9467 16.6422 16.6422C14.9467 18.3377 12.6478 19.2915 10.25 19.2941ZM5.62745 8.24019C5.62745 8.04144 5.68639 7.84716 5.79681 7.6819C5.90723 7.51665 6.06418 7.38785 6.2478 7.31179C6.43142 7.23573 6.63347 7.21583 6.8284 7.2546C7.02333 7.29338 7.20239 7.38908 7.34293 7.52962C7.48347 7.67016 7.57917 7.84922 7.61795 8.04415C7.65672 8.23908 7.63682 8.44113 7.56076 8.62475C7.48471 8.80838 7.35591 8.96532 7.19065 9.07574C7.02539 9.18616 6.83111 9.2451 6.63236 9.2451C6.36584 9.2451 6.11024 9.13922 5.92178 8.95077C5.73333 8.76231 5.62745 8.50671 5.62745 8.24019ZM14.8726 8.24019C14.8726 8.43894 14.8136 8.63323 14.7032 8.79849C14.5928 8.96374 14.4358 9.09254 14.2522 9.1686C14.0686 9.24466 13.8665 9.26456 13.6716 9.22579C13.4767 9.18701 13.2976 9.0913 13.1571 8.95077C13.0165 8.81023 12.9208 8.63117 12.8821 8.43624C12.8433 8.24131 12.8632 8.03926 12.9392 7.85564C13.0153 7.67201 13.1441 7.51507 13.3094 7.40465C13.4746 7.29423 13.6689 7.23529 13.8676 7.23529C14.1342 7.23529 14.3898 7.34117 14.5782 7.52962C14.7667 7.71808 14.8726 7.97368 14.8726 8.24019ZM14.7912 14.7721C14.8632 14.9099 14.8793 15.0702 14.836 15.2195C14.7926 15.3689 14.6933 15.4957 14.5586 15.5735C14.424 15.6514 14.2645 15.6742 14.1135 15.6372C13.9624 15.6002 13.8315 15.5062 13.7481 15.375C12.9602 14.0144 11.7182 13.2647 10.25 13.2647C8.78184 13.2647 7.53677 14.0144 6.75194 15.375C6.69899 15.4667 6.62281 15.5429 6.53108 15.5958C6.43935 15.6487 6.33529 15.6765 6.22939 15.6765C6.12343 15.6768 6.01933 15.6487 5.92792 15.5951C5.78988 15.5148 5.68929 15.3831 5.64822 15.2289C5.60715 15.0746 5.62896 14.9103 5.70885 14.7721C6.70571 13.0476 8.36079 12.0588 10.25 12.0588C12.1392 12.0588 13.7943 13.0476 14.7912 14.7721Z" fill="#181818"/>
</svg>
